<?xml version="1.0" encoding="UTF-8" standalone="no"?>
<!DOCTYPE svg PUBLIC "-//W3C//DTD SVG 1.1//EN"
 "http://www.w3.org/Graphics/SVG/1.1/DTD/svg11.dtd">
<!-- Generated by graphviz version 2.40.1 (20161225.0304)
 -->
<!-- Title: G Pages: 1 -->
<svg width="562pt" height="338pt"
 viewBox="0.00 0.00 562.45 338.00" xmlns="http://www.w3.org/2000/svg" xmlns:xlink="http://www.w3.org/1999/xlink">
<g id="graph0" class="graph" transform="scale(1 1) rotate(0) translate(4 334)">
<title>G</title>
<polygon fill="#ffffff" stroke="transparent" points="-4,4 -4,-334 558.4473,-334 558.4473,4 -4,4"/>
<g id="clust1" class="cluster">
<title>cluster_Global</title>
<path fill="none" stroke="#c0c0c0" d="M20,-8C20,-8 534.4473,-8 534.4473,-8 540.4473,-8 546.4473,-14 546.4473,-20 546.4473,-20 546.4473,-310 546.4473,-310 546.4473,-316 540.4473,-322 534.4473,-322 534.4473,-322 20,-322 20,-322 14,-322 8,-316 8,-310 8,-310 8,-20 8,-20 8,-14 14,-8 20,-8"/>
<text text-anchor="middle" x="277.2236" y="-309.2" font-family="Times,serif" font-size="11.00" fill="#c0c0c0">Global</text>
</g>
<g id="clust2" class="cluster">
<title>cluster_\Click4Web</title>
<path fill="none" stroke="#c0c0c0" d="M28,-16C28,-16 526.4473,-16 526.4473,-16 532.4473,-16 538.4473,-22 538.4473,-28 538.4473,-28 538.4473,-283 538.4473,-283 538.4473,-289 532.4473,-295 526.4473,-295 526.4473,-295 28,-295 28,-295 22,-295 16,-289 16,-283 16,-283 16,-28 16,-28 16,-22 22,-16 28,-16"/>
<text text-anchor="middle" x="277.2236" y="-282.2" font-family="Times,serif" font-size="11.00" fill="#c0c0c0">Click4Web</text>
</g>
<g id="clust3" class="cluster">
<title>cluster_\Click4Web\DeclaracaoConteudo</title>
<path fill="none" stroke="#c0c0c0" d="M36,-24C36,-24 518.4473,-24 518.4473,-24 524.4473,-24 530.4473,-30 530.4473,-36 530.4473,-36 530.4473,-256 530.4473,-256 530.4473,-262 524.4473,-268 518.4473,-268 518.4473,-268 36,-268 36,-268 30,-268 24,-262 24,-256 24,-256 24,-36 24,-36 24,-30 30,-24 36,-24"/>
<text text-anchor="middle" x="277.2236" y="-255.2" font-family="Times,serif" font-size="11.00" fill="#c0c0c0">DeclaracaoConteudo</text>
</g>
<g id="clust4" class="cluster">
<title>cluster_\Click4Web\DeclaracaoConteudo\Entities</title>
<path fill="none" stroke="#c0c0c0" d="M431.2344,-101C431.2344,-101 478.8408,-101 478.8408,-101 484.8408,-101 490.8408,-107 490.8408,-113 490.8408,-113 490.8408,-214 490.8408,-214 490.8408,-220 484.8408,-226 478.8408,-226 478.8408,-226 431.2344,-226 431.2344,-226 425.2344,-226 419.2344,-220 419.2344,-214 419.2344,-214 419.2344,-113 419.2344,-113 419.2344,-107 425.2344,-101 431.2344,-101"/>
<text text-anchor="middle" x="455.0376" y="-213.2" font-family="Times,serif" font-size="11.00" fill="#c0c0c0">Entities</text>
</g>
<g id="clust5" class="cluster">
<title>cluster_\Click4Web\DeclaracaoConteudo\Core</title>
<path fill="none" stroke="#c0c0c0" d="M237.6172,-32C237.6172,-32 311.6279,-32 311.6279,-32 317.6279,-32 323.6279,-38 323.6279,-44 323.6279,-44 323.6279,-199 323.6279,-199 323.6279,-205 317.6279,-211 311.6279,-211 311.6279,-211 237.6172,-211 237.6172,-211 231.6172,-211 225.6172,-205 225.6172,-199 225.6172,-199 225.6172,-44 225.6172,-44 225.6172,-38 231.6172,-32 237.6172,-32"/>
<text text-anchor="middle" x="274.6226" y="-198.2" font-family="Times,serif" font-size="11.00" fill="#c0c0c0">Core</text>
</g>
<g id="clust6" class="cluster">
<title>cluster_\Click4Web\DeclaracaoConteudo\Interfaces</title>
<path fill="none" stroke="#c0c0c0" d="M44,-62C44,-62 157.6172,-62 157.6172,-62 163.6172,-62 169.6172,-68 169.6172,-74 169.6172,-74 169.6172,-229 169.6172,-229 169.6172,-235 163.6172,-241 157.6172,-241 157.6172,-241 44,-241 44,-241 38,-241 32,-235 32,-229 32,-229 32,-74 32,-74 32,-68 38,-62 44,-62"/>
<text text-anchor="middle" x="100.8086" y="-228.2" font-family="Times,serif" font-size="11.00" fill="#c0c0c0">Interfaces</text>
</g>
<!-- \\Click4Web\\DeclaracaoConteudo\\Entities\\Item -->
<g id="node1" class="node">
<title>\\Click4Web\\DeclaracaoConteudo\\Entities\\Item</title>
<polygon fill="none" stroke="#000000" points="482.0376,-145 428.0376,-145 428.0376,-109 482.0376,-109 482.0376,-145"/>
<text text-anchor="middle" x="455.0376" y="-123.7" font-family="Courier,monospace" font-size="11.00" fill="#000000">Item</text>
</g>
<!-- \\Click4Web\\DeclaracaoConteudo\\Core\\Entity -->
<g id="node4" class="node">
<title>\\Click4Web\\DeclaracaoConteudo\\Core\\Entity</title>
<polygon fill="none" stroke="#000000" points="302.2304,-130 247.0147,-130 247.0147,-94 302.2304,-94 302.2304,-130"/>
<text text-anchor="middle" x="274.6226" y="-108.7" font-family="Courier,monospace" font-size="11.00" fill="#000000">Entity</text>
</g>
<!-- \\Click4Web\\DeclaracaoConteudo\\Entities\\Item&#45;&gt;\\Click4Web\\DeclaracaoConteudo\\Core\\Entity -->
<g id="edge1" class="edge">
<title>\\Click4Web\\DeclaracaoConteudo\\Entities\\Item&#45;&gt;\\Click4Web\\DeclaracaoConteudo\\Core\\Entity</title>
<path fill="none" stroke="#000000" d="M428.0276,-124.7543C397.3825,-122.2065 347.1824,-118.0327 312.6022,-115.1577"/>
<polygon fill="none" stroke="#000000" points="312.6665,-111.651 302.4109,-114.3104 312.0865,-118.627 312.6665,-111.651"/>
</g>
<!-- \\Click4Web\\DeclaracaoConteudo\\Interfaces\\ItemInterface -->
<g id="node8" class="node">
<title>\\Click4Web\\DeclaracaoConteudo\\Interfaces\\ItemInterface</title>
<polygon fill="none" stroke="#000000" points="151.6227,-160 49.9945,-160 49.9945,-124 151.6227,-124 151.6227,-160"/>
<text text-anchor="middle" x="100.8086" y="-138.7" font-family="Courier,monospace" font-size="11.00" fill="#000000">ItemInterface</text>
</g>
<!-- \\Click4Web\\DeclaracaoConteudo\\Entities\\Item&#45;&gt;\\Click4Web\\DeclaracaoConteudo\\Interfaces\\ItemInterface -->
<g id="edge2" class="edge">
<title>\\Click4Web\\DeclaracaoConteudo\\Entities\\Item&#45;&gt;\\Click4Web\\DeclaracaoConteudo\\Interfaces\\ItemInterface</title>
<path fill="none" stroke="#000000" stroke-dasharray="1,5" d="M427.9735,-135.1831C415.1833,-139.7007 400.0366,-146.0257 387.6279,-154 354.5706,-175.2441 360.1096,-200.3991 323.6279,-215 283.1863,-231.1858 266.6279,-229.6842 225.6172,-215 195.2932,-204.1423 197.3945,-185.3051 169.6172,-169 166.7951,-167.3435 163.8525,-165.749 160.8415,-164.2208"/>
<polygon fill="none" stroke="#000000" points="162.1873,-160.985 151.6547,-159.8387 159.1736,-167.3031 162.1873,-160.985"/>
</g>
<!-- \\Click4Web\\DeclaracaoConteudo\\Entities\\Pessoa -->
<g id="node2" class="node">
<title>\\Click4Web\\DeclaracaoConteudo\\Entities\\Pessoa</title>
<polygon fill="none" stroke="#000000" points="482.6454,-199 427.4298,-199 427.4298,-163 482.6454,-163 482.6454,-199"/>
<text text-anchor="middle" x="455.0376" y="-177.7" font-family="Courier,monospace" font-size="11.00" fill="#000000">Pessoa</text>
</g>
<!-- \\Click4Web\\DeclaracaoConteudo\\Entities\\Pessoa&#45;&gt;\\Click4Web\\DeclaracaoConteudo\\Core\\Entity -->
<g id="edge5" class="edge">
<title>\\Click4Web\\DeclaracaoConteudo\\Entities\\Pessoa&#45;&gt;\\Click4Web\\DeclaracaoConteudo\\Core\\Entity</title>
<path fill="none" stroke="#000000" d="M427.2431,-170.37C396.3858,-158.5685 346.4175,-139.4581 312.1153,-126.3392"/>
<polygon fill="none" stroke="#000000" points="313.0391,-122.9453 302.4486,-122.6421 310.5385,-129.4834 313.0391,-122.9453"/>
</g>
<!-- \\Click4Web\\DeclaracaoConteudo\\Interfaces\\PessoaInterface -->
<g id="node7" class="node">
<title>\\Click4Web\\DeclaracaoConteudo\\Interfaces\\PessoaInterface</title>
<polygon fill="none" stroke="#000000" points="158.3247,-214 43.2925,-214 43.2925,-178 158.3247,-178 158.3247,-214"/>
<text text-anchor="middle" x="100.8086" y="-192.7" font-family="Courier,monospace" font-size="11.00" fill="#000000">PessoaInterface</text>
</g>
<!-- \\Click4Web\\DeclaracaoConteudo\\Entities\\Pessoa&#45;&gt;\\Click4Web\\DeclaracaoConteudo\\Interfaces\\PessoaInterface -->
<g id="edge6" class="edge">
<title>\\Click4Web\\DeclaracaoConteudo\\Entities\\Pessoa&#45;&gt;\\Click4Web\\DeclaracaoConteudo\\Interfaces\\PessoaInterface</title>
<path fill="none" stroke="#000000" stroke-dasharray="1,5" d="M427.2536,-193.237C401.1047,-204.041 360.5527,-218.9824 323.6279,-225 271.7251,-233.4586 212.6994,-224.9675 168.4443,-215.0322"/>
<polygon fill="none" stroke="#000000" points="169.1989,-211.6143 158.6661,-212.7598 167.6143,-218.4326 169.1989,-211.6143"/>
</g>
<!-- \\Click4Web\\DeclaracaoConteudo\\Core\\ItemBag -->
<g id="node3" class="node">
<title>\\Click4Web\\DeclaracaoConteudo\\Core\\ItemBag</title>
<polygon fill="none" stroke="#000000" points="305.8304,-184 243.4147,-184 243.4147,-148 305.8304,-148 305.8304,-184"/>
<text text-anchor="middle" x="274.6226" y="-162.7" font-family="Courier,monospace" font-size="11.00" fill="#000000">ItemBag</text>
</g>
<!-- \\Click4Web\\DeclaracaoConteudo\\Interfaces\\ItemBagInterface -->
<g id="node6" class="node">
<title>\\Click4Web\\DeclaracaoConteudo\\Interfaces\\ItemBagInterface</title>
<polygon fill="none" stroke="#000000" points="161.4264,-106 40.1908,-106 40.1908,-70 161.4264,-70 161.4264,-106"/>
<text text-anchor="middle" x="100.8086" y="-84.7" font-family="Courier,monospace" font-size="11.00" fill="#000000">ItemBagInterface</text>
</g>
<!-- \\Click4Web\\DeclaracaoConteudo\\Core\\ItemBag&#45;&gt;\\Click4Web\\DeclaracaoConteudo\\Interfaces\\ItemBagInterface -->
<g id="edge3" class="edge">
<title>\\Click4Web\\DeclaracaoConteudo\\Core\\ItemBag&#45;&gt;\\Click4Web\\DeclaracaoConteudo\\Interfaces\\ItemBagInterface</title>
<path fill="none" stroke="#000000" stroke-dasharray="1,5" d="M243.2173,-149.9499C222.5069,-139.564 194.6763,-125.9819 169.6172,-115 165.7826,-113.3195 161.8078,-111.6288 157.7909,-109.9579"/>
<polygon fill="none" stroke="#000000" points="158.9682,-106.658 148.3876,-106.1088 156.3164,-113.1363 158.9682,-106.658"/>
</g>
<!-- \\Click4Web\\DeclaracaoConteudo\\Core\\Controller -->
<g id="node5" class="node">
<title>\\Click4Web\\DeclaracaoConteudo\\Core\\Controller</title>
<polygon fill="none" stroke="#000000" points="315.6333,-76 233.6118,-76 233.6118,-40 315.6333,-40 315.6333,-76"/>
<text text-anchor="middle" x="274.6226" y="-54.7" font-family="Courier,monospace" font-size="11.00" fill="#000000">Controller</text>
</g>
<!-- \\Click4Web\\DeclaracaoConteudo\\DeclaracaoConteudo -->
<g id="node9" class="node">
<title>\\Click4Web\\DeclaracaoConteudo\\DeclaracaoConteudo</title>
<polygon fill="none" stroke="#000000" points="522.3571,-76 387.7181,-76 387.7181,-40 522.3571,-40 522.3571,-76"/>
<text text-anchor="middle" x="455.0376" y="-54.7" font-family="Courier,monospace" font-size="11.00" fill="#000000">DeclaracaoConteudo</text>
</g>
<!-- \\Click4Web\\DeclaracaoConteudo\\DeclaracaoConteudo&#45;&gt;\\Click4Web\\DeclaracaoConteudo\\Core\\Controller -->
<g id="edge4" class="edge">
<title>\\Click4Web\\DeclaracaoConteudo\\DeclaracaoConteudo&#45;&gt;\\Click4Web\\DeclaracaoConteudo\\Core\\Controller</title>
<path fill="none" stroke="#000000" d="M387.6011,-58C367.1549,-58 345.0388,-58 325.8402,-58"/>
<polygon fill="none" stroke="#000000" points="325.7983,-54.5001 315.7983,-58 325.7983,-61.5001 325.7983,-54.5001"/>
</g>
</g>
</svg>
